<svg xmlns="http://www.w3.org/2000/svg" xmlns:xlink="http://www.w3.org/1999/xlink" width="500" zoomAndPan="magnify" viewBox="0 0 375 374.999991" height="500" preserveAspectRatio="xMidYMid meet" version="1.0"><defs><g/></defs><path stroke-linecap="butt" transform="matrix(0.75, 0, 0, 0.75, 64.183594, 159.74999)" fill="none" stroke-linejoin="miter" d="M 20.364584 27.338557 C 23.802085 27.338557 26.489585 28.682308 28.437502 31.364599 C 30.38021 34.046891 31.354169 37.723975 31.354169 42.390642 C 31.354169 47.197934 30.34896 50.921892 28.343752 53.562518 C 26.338543 56.203143 23.609376 57.520851 20.156251 57.520851 C 16.734376 57.520851 14.052084 56.281268 12.109376 53.796893 L 11.562501 53.796893 L 10.234375 57.000018 L 4.166667 57.000018 L 4.166667 16.479182 L 12.109376 16.479182 L 12.109376 25.906266 C 12.109376 27.104182 12.005209 29.026058 11.796876 31.661474 L 12.109376 31.661474 C 13.963542 28.781266 16.718751 27.338557 20.364584 27.338557 Z M 17.812501 33.692725 C 15.848959 33.692725 14.416667 34.296891 13.515626 35.505225 C 12.614584 36.70835 12.145834 38.703142 12.109376 41.479183 L 12.109376 42.338558 C 12.109376 45.463559 12.572917 47.703142 13.500001 49.057309 C 14.432292 50.411476 15.901043 51.088559 17.916668 51.088559 C 19.546876 51.088559 20.843751 50.338559 21.807293 48.838559 C 22.770835 47.33335 23.25521 45.151059 23.25521 42.286475 C 23.25521 39.421892 22.765626 37.276058 21.796876 35.843766 C 20.822918 34.411475 19.494793 33.692725 17.812501 33.692725 Z M 50.177086 51.192726 C 51.567712 51.192726 53.234378 50.890642 55.177087 50.281267 L 55.177087 56.192726 C 53.19792 57.078143 50.765628 57.520851 47.88542 57.520851 C 44.708336 57.520851 42.395836 56.718768 40.947919 55.114601 C 39.494794 53.505226 38.770836 51.098976 38.770836 47.885434 L 38.770836 33.848975 L 34.968752 33.848975 L 34.968752 30.489599 L 39.343752 27.833349 L 41.635419 21.687515 L 46.713545 21.687515 L 46.713545 27.885432 L 54.864587 27.885432 L 54.864587 33.848975 L 46.713545 33.848975 L 46.713545 47.885434 C 46.713545 49.015642 47.031253 49.848976 47.66667 50.385434 C 48.296878 50.921892 49.13542 51.192726 50.177086 51.192726 Z M 77.052088 57.520851 C 73.630213 57.520851 70.947921 56.281268 69.005213 53.796893 L 68.588546 53.796893 C 68.864588 56.229184 69.005213 57.635434 69.005213 58.015643 L 69.005213 69.812519 L 61.062504 69.812519 L 61.062504 27.885432 L 67.520838 27.885432 L 68.640629 31.661474 L 69.005213 31.661474 C 70.859379 28.781266 73.614588 27.338557 77.260422 27.338557 C 80.697922 27.338557 83.385422 28.666683 85.333339 31.322933 C 87.276047 33.979183 88.250006 37.671891 88.250006 42.390642 C 88.250006 45.500017 87.791672 48.197934 86.880214 50.489601 C 85.968755 52.781267 84.67188 54.526059 82.989589 55.723976 C 81.302088 56.921893 79.322922 57.520851 77.052088 57.520851 Z M 74.708338 33.692725 C 72.744796 33.692725 71.312505 34.296891 70.411463 35.505225 C 69.505213 36.70835 69.036463 38.703142 69.005213 41.479183 L 69.005213 42.338558 C 69.005213 45.463559 69.468754 47.703142 70.395838 49.057309 C 71.32813 50.411476 72.79688 51.088559 74.812505 51.088559 C 78.369797 51.088559 80.151047 48.156267 80.151047 42.286475 C 80.151047 39.421892 79.708338 37.276058 78.833338 35.843766 C 77.958338 34.411475 76.583338 33.692725 74.708338 33.692725 Z M 121.682299 57.000018 L 113.739591 57.000018 L 113.739591 39.994808 C 113.739591 35.796891 112.177091 33.692725 109.05209 33.692725 C 106.828132 33.692725 105.223965 34.447933 104.234382 35.95835 C 103.244798 37.468766 102.750007 39.916683 102.750007 43.3021 L 102.750007 57.000018 L 94.807298 57.000018 L 94.807298 16.479182 L 102.750007 16.479182 L 102.750007 24.734391 C 102.750007 25.380224 102.687507 26.890641 102.567715 29.265641 L 102.385423 31.609391 L 102.80209 31.609391 C 104.572923 28.765641 107.385424 27.338557 111.23959 27.338557 C 114.661466 27.338557 117.255216 28.260433 119.026049 30.098974 C 120.796883 31.942724 121.682299 34.578141 121.682299 38.015641 Z M 136.187509 42.390642 C 136.187509 45.27085 136.656259 47.453142 137.604176 48.927101 C 138.552092 50.401059 140.088551 51.140642 142.223967 51.140642 C 144.343759 51.140642 145.869801 50.406267 146.796884 48.942726 C 147.723968 47.473975 148.18751 45.291684 148.18751 42.390642 C 148.18751 39.510433 147.71876 37.348975 146.781259 35.906266 C 145.843759 34.468766 144.307301 33.744808 142.171884 33.744808 C 140.057301 33.744808 138.526051 34.463558 137.593759 35.89585 C 136.656259 37.328141 136.187509 39.494808 136.187509 42.390642 Z M 156.31251 42.390642 C 156.31251 47.130225 155.06251 50.838559 152.56251 53.510434 C 150.06251 56.182309 146.583343 57.520851 142.119801 57.520851 C 139.328134 57.520851 136.864592 56.906268 134.729175 55.687518 C 132.593759 54.463559 130.953133 52.703142 129.8073 50.411476 C 128.661467 48.119809 128.08855 45.447934 128.08855 42.390642 C 128.08855 37.635433 129.328133 33.937516 131.812508 31.296891 C 134.291675 28.661474 137.781259 27.338557 142.276051 27.338557 C 145.072926 27.338557 147.536468 27.947932 149.671885 29.161474 C 151.807301 30.380224 153.447927 32.125016 154.59376 34.39585 C 155.739593 36.671891 156.31251 39.338558 156.31251 42.390642 Z M 189.750012 57.000018 L 181.807303 57.000018 L 181.807303 39.994808 C 181.807303 37.89585 181.432303 36.317725 180.687512 35.27085 C 179.937512 34.218766 178.750012 33.692725 177.119803 33.692725 C 174.895845 33.692725 173.291678 34.437516 172.302094 35.921891 C 171.312511 37.406266 170.817719 39.8646 170.817719 43.3021 L 170.817719 57.000018 L 162.875011 57.000018 L 162.875011 27.885432 L 168.942719 27.885432 L 170.010428 31.609391 L 170.453136 31.609391 C 171.338553 30.203141 172.557303 29.140641 174.109386 28.421891 C 175.666678 27.703141 177.432303 27.338557 179.41147 27.338557 C 182.796887 27.338557 185.364595 28.255224 187.119804 30.088558 C 188.869804 31.916683 189.750012 34.562516 189.750012 38.015641 Z M 209.97918 51.296892 C 212.114597 51.296892 213.640639 50.687517 214.562514 49.463559 C 215.484389 48.2396 215.942722 46.255225 215.942722 43.510434 L 215.942722 42.546892 C 215.942722 39.442725 215.463556 37.203141 214.500014 35.843766 C 213.536472 34.479183 211.984389 33.796891 209.848972 33.796891 C 206.119805 33.796891 204.250013 36.734391 204.250013 42.598975 C 204.250013 45.515642 204.713555 47.692725 205.645847 49.135434 C 206.57293 50.578142 208.020847 51.296892 209.97918 51.296892 Z M 223.364598 57.052101 C 223.364598 61.234393 222.145848 64.406268 219.708348 66.567727 C 217.265639 68.729185 213.635431 69.812519 208.807305 69.812519 C 204.557305 69.812519 200.927096 69.239602 197.921888 68.093768 L 197.921888 61.739601 C 201.44793 63.234393 205.234388 63.979185 209.276055 63.979185 C 213.35418 63.979185 215.395847 61.77606 215.395847 57.364601 L 215.395847 56.791684 L 215.630222 53.223976 L 215.395847 53.223976 C 213.536472 56.088559 210.786472 57.520851 207.140638 57.520851 C 203.651055 57.520851 200.94793 56.177101 199.031263 53.484392 C 197.109388 50.791684 196.151054 47.130225 196.151054 42.494808 C 196.151054 37.723975 197.145846 34.000016 199.13543 31.338558 C 201.119805 28.671891 203.859388 27.338557 207.348972 27.338557 C 210.927097 27.338557 213.739597 28.765641 215.786472 31.609391 L 215.994806 31.609391 L 216.645847 27.885432 L 223.364598 27.885432 Z M 223.364598 57.052101 " stroke="#ffffff" stroke-width="1.466666" stroke-opacity="1" stroke-miterlimit="4"/><path stroke-linecap="butt" transform="matrix(0.75, 0, 0, 0.75, 64.183594, 159.74999)" fill="none" stroke-linejoin="miter" d="M 263.89585 37.598975 C 263.89585 43.8646 262.109392 48.666684 258.541683 52.000017 C 254.973975 55.333351 249.822933 57.000018 243.088557 57.000018 L 232.307307 57.000018 L 232.307307 18.927099 L 244.260433 18.927099 C 250.473975 18.927099 255.3021 20.567724 258.7396 23.848974 C 262.1771 27.130224 263.89585 31.713558 263.89585 37.598975 Z M 255.510433 37.807308 C 255.510433 29.630224 251.89585 25.541682 244.677099 25.541682 L 240.380224 25.541682 L 240.380224 50.333351 L 243.843766 50.333351 C 251.619808 50.333351 255.510433 46.156267 255.510433 37.807308 Z M 283.21356 32.989599 C 281.531268 32.989599 280.208352 33.526058 279.255226 34.593766 C 278.302101 35.661475 277.755226 37.1771 277.614601 39.135433 L 288.760435 39.135433 C 288.723977 37.1771 288.21356 35.661475 287.223977 34.593766 C 286.234394 33.526058 284.895852 32.989599 283.21356 32.989599 Z M 284.333352 57.520851 C 279.645852 57.520851 275.984393 56.229184 273.343768 53.640643 C 270.708351 51.052101 269.385434 47.390642 269.385434 42.651058 C 269.385434 37.776058 270.604184 34.000016 273.046893 31.338558 C 275.484393 28.671891 278.854185 27.338557 283.161477 27.338557 C 287.27606 27.338557 290.479186 28.510433 292.770852 30.854183 C 295.062519 33.197933 296.208353 36.437516 296.208353 40.567725 L 296.208353 44.421892 L 277.43231 44.421892 C 277.520851 46.6771 278.187518 48.442726 279.437518 49.708351 C 280.687518 50.973976 282.442727 51.609392 284.697935 51.609392 C 286.453144 51.609392 288.109394 51.427101 289.671894 51.062517 C 291.234394 50.697934 292.864602 50.114601 294.567727 49.317726 L 294.567727 55.463559 C 293.177102 56.156268 291.692727 56.677101 290.114602 57.010434 C 288.536477 57.348976 286.609394 57.520851 284.333352 57.520851 Z M 309.59377 57.000018 L 298.500019 27.885432 L 306.807312 27.885432 L 312.432312 44.473975 C 313.00002 46.281267 313.37502 48.265642 313.546895 50.437517 L 313.755229 50.437517 C 313.859395 48.473976 314.25002 46.4896 314.927104 44.473975 L 320.526063 27.885432 L 328.833355 27.885432 L 317.739604 57.000018 Z M 309.59377 57.000018 " stroke="#ffffff" stroke-width="1.466666" stroke-opacity="1" stroke-miterlimit="4"/><g fill="#d9d9d9" fill-opacity="1"><g transform="translate(64.183594, 202.499987)"><g><path d="M 15.28125 -22.25 C 17.851562 -22.25 19.867188 -21.242188 21.328125 -19.234375 C 22.785156 -17.222656 23.515625 -14.460938 23.515625 -10.953125 C 23.515625 -7.347656 22.757812 -4.554688 21.25 -2.578125 C 19.75 -0.597656 17.707031 0.390625 15.125 0.390625 C 12.550781 0.390625 10.535156 -0.539062 9.078125 -2.40625 L 8.671875 -2.40625 L 7.671875 0 L 3.125 0 L 3.125 -30.390625 L 9.078125 -30.390625 L 9.078125 -23.328125 C 9.078125 -22.421875 9 -20.976562 8.84375 -19 L 9.078125 -19 C 10.472656 -21.164062 12.539062 -22.25 15.28125 -22.25 Z M 13.359375 -17.484375 C 11.890625 -17.484375 10.816406 -17.03125 10.140625 -16.125 C 9.460938 -15.21875 9.109375 -13.722656 9.078125 -11.640625 L 9.078125 -11 C 9.078125 -8.65625 9.425781 -6.972656 10.125 -5.953125 C 10.820312 -4.941406 11.925781 -4.4375 13.4375 -4.4375 C 14.664062 -4.4375 15.640625 -5 16.359375 -6.125 C 17.078125 -7.25 17.4375 -8.882812 17.4375 -11.03125 C 17.4375 -13.1875 17.070312 -14.800781 16.34375 -15.875 C 15.613281 -16.945312 14.617188 -17.484375 13.359375 -17.484375 Z M 13.359375 -17.484375 "/></g></g></g><g fill="#d9d9d9" fill-opacity="1"><g transform="translate(89.49362, 202.499987)"><g><path d="M 12.328125 -4.359375 C 13.367188 -4.359375 14.617188 -4.585938 16.078125 -5.046875 L 16.078125 -0.609375 C 14.585938 0.0546875 12.765625 0.390625 10.609375 0.390625 C 8.222656 0.390625 6.484375 -0.207031 5.390625 -1.40625 C 4.304688 -2.613281 3.765625 -4.425781 3.765625 -6.84375 L 3.765625 -17.359375 L 0.921875 -17.359375 L 0.921875 -19.890625 L 4.203125 -21.875 L 5.921875 -26.484375 L 9.734375 -26.484375 L 9.734375 -21.84375 L 15.84375 -21.84375 L 15.84375 -17.359375 L 9.734375 -17.359375 L 9.734375 -6.84375 C 9.734375 -5.988281 9.96875 -5.359375 10.4375 -4.953125 C 10.914062 -4.554688 11.546875 -4.359375 12.328125 -4.359375 Z M 12.328125 -4.359375 "/></g></g></g><g fill="#d9d9d9" fill-opacity="1"><g transform="translate(106.85521, 202.499987)"><g><path d="M 15.125 0.390625 C 12.550781 0.390625 10.535156 -0.539062 9.078125 -2.40625 L 8.765625 -2.40625 C 8.972656 -0.582031 9.078125 0.472656 9.078125 0.765625 L 9.078125 9.609375 L 3.125 9.609375 L 3.125 -21.84375 L 7.96875 -21.84375 L 8.8125 -19 L 9.078125 -19 C 10.472656 -21.164062 12.539062 -22.25 15.28125 -22.25 C 17.851562 -22.25 19.867188 -21.25 21.328125 -19.25 C 22.785156 -17.257812 23.515625 -14.492188 23.515625 -10.953125 C 23.515625 -8.628906 23.171875 -6.609375 22.484375 -4.890625 C 21.804688 -3.171875 20.832031 -1.859375 19.5625 -0.953125 C 18.300781 -0.0546875 16.820312 0.390625 15.125 0.390625 Z M 13.359375 -17.484375 C 11.890625 -17.484375 10.816406 -17.03125 10.140625 -16.125 C 9.460938 -15.21875 9.109375 -13.722656 9.078125 -11.640625 L 9.078125 -11 C 9.078125 -8.65625 9.425781 -6.972656 10.125 -5.953125 C 10.820312 -4.941406 11.925781 -4.4375 13.4375 -4.4375 C 16.101562 -4.4375 17.4375 -6.632812 17.4375 -11.03125 C 17.4375 -13.1875 17.109375 -14.800781 16.453125 -15.875 C 15.796875 -16.945312 14.765625 -17.484375 13.359375 -17.484375 Z M 13.359375 -17.484375 "/></g></g></g><g fill="#d9d9d9" fill-opacity="1"><g transform="translate(132.165236, 202.499987)"><g><path d="M 23.28125 0 L 17.328125 0 L 17.328125 -12.75 C 17.328125 -15.90625 16.15625 -17.484375 13.8125 -17.484375 C 12.144531 -17.484375 10.9375 -16.914062 10.1875 -15.78125 C 9.445312 -14.644531 9.078125 -12.8125 9.078125 -10.28125 L 9.078125 0 L 3.125 0 L 3.125 -30.390625 L 9.078125 -30.390625 L 9.078125 -24.203125 C 9.078125 -23.722656 9.035156 -22.585938 8.953125 -20.796875 L 8.8125 -19.046875 L 9.125 -19.046875 C 10.445312 -21.179688 12.554688 -22.25 15.453125 -22.25 C 18.015625 -22.25 19.957031 -21.554688 21.28125 -20.171875 C 22.613281 -18.796875 23.28125 -16.816406 23.28125 -14.234375 Z M 23.28125 0 "/></g></g></g><g fill="#d9d9d9" fill-opacity="1"><g transform="translate(158.45173, 202.499987)"><g><path d="M 7.875 -10.953125 C 7.875 -8.796875 8.226562 -7.160156 8.9375 -6.046875 C 9.644531 -4.941406 10.800781 -4.390625 12.40625 -4.390625 C 13.988281 -4.390625 15.128906 -4.941406 15.828125 -6.046875 C 16.523438 -7.148438 16.875 -8.785156 16.875 -10.953125 C 16.875 -13.117188 16.519531 -14.738281 15.8125 -15.8125 C 15.113281 -16.894531 13.960938 -17.4375 12.359375 -17.4375 C 10.773438 -17.4375 9.628906 -16.898438 8.921875 -15.828125 C 8.222656 -14.753906 7.875 -13.128906 7.875 -10.953125 Z M 22.96875 -10.953125 C 22.96875 -7.398438 22.03125 -4.617188 20.15625 -2.609375 C 18.28125 -0.609375 15.671875 0.390625 12.328125 0.390625 C 10.234375 0.390625 8.382812 -0.0664062 6.78125 -0.984375 C 5.175781 -1.898438 3.941406 -3.21875 3.078125 -4.9375 C 2.222656 -6.65625 1.796875 -8.660156 1.796875 -10.953125 C 1.796875 -14.523438 2.726562 -17.300781 4.59375 -19.28125 C 6.457031 -21.257812 9.070312 -22.25 12.4375 -22.25 C 14.539062 -22.25 16.390625 -21.789062 17.984375 -20.875 C 19.585938 -19.96875 20.816406 -18.660156 21.671875 -16.953125 C 22.535156 -15.242188 22.96875 -13.242188 22.96875 -10.953125 Z M 22.96875 -10.953125 "/></g></g></g><g fill="#d9d9d9" fill-opacity="1"><g transform="translate(183.214935, 202.499987)"><g><path d="M 23.28125 0 L 17.328125 0 L 17.328125 -12.75 C 17.328125 -14.332031 17.046875 -15.515625 16.484375 -16.296875 C 15.921875 -17.085938 15.03125 -17.484375 13.8125 -17.484375 C 12.144531 -17.484375 10.9375 -16.925781 10.1875 -15.8125 C 9.445312 -14.695312 9.078125 -12.851562 9.078125 -10.28125 L 9.078125 0 L 3.125 0 L 3.125 -21.84375 L 7.671875 -21.84375 L 8.484375 -19.046875 L 8.8125 -19.046875 C 9.476562 -20.097656 10.390625 -20.894531 11.546875 -21.4375 C 12.710938 -21.976562 14.039062 -22.25 15.53125 -22.25 C 18.070312 -22.25 20 -21.5625 21.3125 -20.1875 C 22.625 -18.8125 23.28125 -16.828125 23.28125 -14.234375 Z M 23.28125 0 "/></g></g></g><g fill="#d9d9d9" fill-opacity="1"><g transform="translate(209.501428, 202.499987)"><g><path d="M 12.171875 -4.28125 C 13.773438 -4.28125 14.921875 -4.738281 15.609375 -5.65625 C 16.296875 -6.570312 16.640625 -8.0625 16.640625 -10.125 L 16.640625 -10.84375 C 16.640625 -13.175781 16.273438 -14.851562 15.546875 -15.875 C 14.828125 -16.894531 13.671875 -17.40625 12.078125 -17.40625 C 9.273438 -17.40625 7.875 -15.203125 7.875 -10.796875 C 7.875 -8.609375 8.222656 -6.972656 8.921875 -5.890625 C 9.617188 -4.816406 10.703125 -4.28125 12.171875 -4.28125 Z M 22.203125 0.046875 C 22.203125 3.179688 21.285156 5.554688 19.453125 7.171875 C 17.628906 8.796875 14.910156 9.609375 11.296875 9.609375 C 8.097656 9.609375 5.375 9.179688 3.125 8.328125 L 3.125 3.5625 C 5.769531 4.675781 8.609375 5.234375 11.640625 5.234375 C 14.703125 5.234375 16.234375 3.582031 16.234375 0.28125 L 16.234375 -0.15625 L 16.40625 -2.828125 L 16.234375 -2.828125 C 14.835938 -0.679688 12.773438 0.390625 10.046875 0.390625 C 7.421875 0.390625 5.390625 -0.617188 3.953125 -2.640625 C 2.515625 -4.660156 1.796875 -7.40625 1.796875 -10.875 C 1.796875 -14.457031 2.539062 -17.25 4.03125 -19.25 C 5.519531 -21.25 7.578125 -22.25 10.203125 -22.25 C 12.878906 -22.25 14.988281 -21.179688 16.53125 -19.046875 L 16.6875 -19.046875 L 17.171875 -21.84375 L 22.203125 -21.84375 Z M 22.203125 0.046875 "/></g></g></g><g fill="#fa6000" fill-opacity="1"><g transform="translate(234.820305, 202.499987)"><g><path d="M 27.28125 -14.546875 C 27.28125 -9.847656 25.941406 -6.25 23.265625 -3.75 C 20.597656 -1.25 16.738281 0 11.6875 0 L 3.59375 0 L 3.59375 -28.5625 L 12.5625 -28.5625 C 17.21875 -28.5625 20.832031 -27.328125 23.40625 -24.859375 C 25.988281 -22.398438 27.28125 -18.960938 27.28125 -14.546875 Z M 21 -14.390625 C 21 -20.523438 18.289062 -23.59375 12.875 -23.59375 L 9.65625 -23.59375 L 9.65625 -5 L 12.25 -5 C 18.082031 -5 21 -8.128906 21 -14.390625 Z M 21 -14.390625 "/></g></g></g><g fill="#fa6000" fill-opacity="1"><g transform="translate(264.426786, 202.499987)"><g><path d="M 12.171875 -18.015625 C 10.910156 -18.015625 9.921875 -17.613281 9.203125 -16.8125 C 8.484375 -16.007812 8.070312 -14.875 7.96875 -13.40625 L 16.328125 -13.40625 C 16.304688 -14.875 15.921875 -16.007812 15.171875 -16.8125 C 14.429688 -17.613281 13.429688 -18.015625 12.171875 -18.015625 Z M 13.015625 0.390625 C 9.492188 0.390625 6.742188 -0.578125 4.765625 -2.515625 C 2.785156 -4.460938 1.796875 -7.210938 1.796875 -10.765625 C 1.796875 -14.421875 2.707031 -17.25 4.53125 -19.25 C 6.363281 -21.25 8.894531 -22.25 12.125 -22.25 C 15.21875 -22.25 17.625 -21.367188 19.34375 -19.609375 C 21.0625 -17.847656 21.921875 -15.421875 21.921875 -12.328125 L 21.921875 -9.4375 L 7.828125 -9.4375 C 7.898438 -7.738281 8.40625 -6.414062 9.34375 -5.46875 C 10.28125 -4.519531 11.59375 -4.046875 13.28125 -4.046875 C 14.59375 -4.046875 15.832031 -4.179688 17 -4.453125 C 18.175781 -4.722656 19.40625 -5.160156 20.6875 -5.765625 L 20.6875 -1.15625 C 19.644531 -0.632812 18.53125 -0.25 17.34375 0 C 16.15625 0.257812 14.710938 0.390625 13.015625 0.390625 Z M 13.015625 0.390625 "/></g></g></g><g fill="#fa6000" fill-opacity="1"><g transform="translate(288.057289, 202.499987)"><g><path d="M 8.328125 0 L 0 -21.84375 L 6.234375 -21.84375 L 10.453125 -9.390625 C 10.878906 -8.035156 11.160156 -6.546875 11.296875 -4.921875 L 11.453125 -4.921875 C 11.523438 -6.390625 11.816406 -7.878906 12.328125 -9.390625 L 16.53125 -21.84375 L 22.75 -21.84375 L 14.4375 0 Z M 8.328125 0 "/></g></g></g></svg>