<svg xmlns="http://www.w3.org/2000/svg" xmlns:xlink="http://www.w3.org/1999/xlink" width="500" zoomAndPan="magnify" viewBox="0 0 375 374.999991" height="500" preserveAspectRatio="xMidYMid meet" version="1.0"><defs><g/></defs><path stroke-linecap="butt" transform="matrix(0.75, 0, 0, 0.75, 66.146484, 159.74999)" fill="none" stroke-linejoin="miter" d="M 20.361981 27.338557 C 23.799481 27.338557 26.49219 28.682308 28.434898 31.364599 C 30.377606 34.046891 31.351565 37.723975 31.351565 42.390642 C 31.351565 47.197934 30.351565 50.921892 28.346356 53.562518 C 26.341148 56.203143 23.611981 57.520851 20.153647 57.520851 C 16.736981 57.520851 14.054689 56.281268 12.106772 53.796893 L 11.559897 53.796893 L 10.231772 57.000018 L 4.164063 57.000018 L 4.164063 16.479182 L 12.106772 16.479182 L 12.106772 25.906266 C 12.106772 27.104182 12.002605 29.026058 11.794272 31.661474 L 12.106772 31.661474 C 13.966147 28.781266 16.716147 27.338557 20.361981 27.338557 Z M 17.809897 33.692725 C 15.851564 33.692725 14.419272 34.296891 13.513022 35.505225 C 12.61198 36.70835 12.14323 38.703142 12.106772 41.479183 L 12.106772 42.338558 C 12.106772 45.463559 12.575522 47.703142 13.502605 49.057309 C 14.429689 50.411476 15.903647 51.088559 17.914064 51.088559 C 19.549481 51.088559 20.846356 50.338559 21.809898 48.838559 C 22.773439 47.33335 23.252606 45.151059 23.252606 42.286475 C 23.252606 39.421892 22.768231 37.276058 21.794273 35.843766 C 20.825522 34.411475 19.497397 33.692725 17.809897 33.692725 Z M 50.179691 51.192726 C 51.565108 51.192726 53.231775 50.890642 55.179691 50.281267 L 55.179691 56.192726 C 53.200525 57.078143 50.768233 57.520851 47.888024 57.520851 C 44.710941 57.520851 42.398441 56.718768 40.945315 55.114601 C 39.497399 53.505226 38.77344 51.098976 38.77344 47.885434 L 38.77344 33.848975 L 34.971357 33.848975 L 34.971357 30.489599 L 39.346357 27.833349 L 41.638024 21.687515 L 46.716149 21.687515 L 46.716149 27.885432 L 54.867191 27.885432 L 54.867191 33.848975 L 46.716149 33.848975 L 46.716149 47.885434 C 46.716149 49.015642 47.033858 49.848976 47.664066 50.385434 C 48.299483 50.921892 49.138024 51.192726 50.179691 51.192726 Z M 77.049485 57.520851 C 73.632818 57.520851 70.950526 56.281268 69.002609 53.796893 L 68.585942 53.796893 C 68.867192 56.229184 69.002609 57.635434 69.002609 58.015643 L 69.002609 69.812519 L 61.0599 69.812519 L 61.0599 27.885432 L 67.518234 27.885432 L 68.638026 31.661474 L 69.002609 31.661474 C 70.861984 28.781266 73.611984 27.338557 77.257818 27.338557 C 80.695318 27.338557 83.388027 28.666683 85.330735 31.322933 C 87.273444 33.979183 88.247402 37.671891 88.247402 42.390642 C 88.247402 45.500017 87.794277 48.197934 86.882818 50.489601 C 85.97136 52.781267 84.669277 54.526059 82.986985 55.723976 C 81.304693 56.921893 79.325526 57.520851 77.049485 57.520851 Z M 74.705734 33.692725 C 72.747401 33.692725 71.315109 34.296891 70.408859 35.505225 C 69.507817 36.70835 69.039067 38.703142 69.002609 41.479183 L 69.002609 42.338558 C 69.002609 45.463559 69.466151 47.703142 70.398442 49.057309 C 71.325526 50.411476 72.799484 51.088559 74.809901 51.088559 C 78.372401 51.088559 80.148443 48.156267 80.148443 42.286475 C 80.148443 39.421892 79.710943 37.276058 78.835943 35.843766 C 77.955735 34.411475 76.580734 33.692725 74.705734 33.692725 Z M 121.679696 57.000018 L 113.742195 57.000018 L 113.742195 39.994808 C 113.742195 35.796891 112.179695 33.692725 109.054695 33.692725 C 106.830736 33.692725 105.22657 34.447933 104.236986 35.95835 C 103.247403 37.468766 102.752611 39.916683 102.752611 43.3021 L 102.752611 57.000018 L 94.809902 57.000018 L 94.809902 16.479182 L 102.752611 16.479182 L 102.752611 24.734391 C 102.752611 25.380224 102.690111 26.890641 102.57032 29.265641 L 102.388028 31.609391 L 102.804695 31.609391 C 104.575528 28.765641 107.388028 27.338557 111.242195 27.338557 C 114.658862 27.338557 117.252612 28.260433 119.023446 30.098974 C 120.794279 31.942724 121.679696 34.578141 121.679696 38.015641 Z M 136.184905 42.390642 C 136.184905 45.27085 136.658863 47.453142 137.601572 48.927101 C 138.549489 50.401059 140.091155 51.140642 142.226572 51.140642 C 144.346364 51.140642 145.867197 50.406267 146.794281 48.942726 C 147.726572 47.473975 148.190114 45.291684 148.190114 42.390642 C 148.190114 39.510433 147.721364 37.348975 146.783864 35.906266 C 145.846364 34.468766 144.309906 33.744808 142.174489 33.744808 C 140.054697 33.744808 138.528655 34.463558 137.591155 35.89585 C 136.653655 37.328141 136.184905 39.494808 136.184905 42.390642 Z M 156.315115 42.390642 C 156.315115 47.130225 155.065115 50.838559 152.565114 53.510434 C 150.065114 56.182309 146.585947 57.520851 142.122405 57.520851 C 139.32553 57.520851 136.861988 56.906268 134.726572 55.687518 C 132.591155 54.463559 130.95053 52.703142 129.804696 50.411476 C 128.658863 48.119809 128.085946 45.447934 128.085946 42.390642 C 128.085946 37.635433 129.32553 33.937516 131.809905 31.296891 C 134.29428 28.661474 137.783864 27.338557 142.278655 27.338557 C 145.075531 27.338557 147.539072 27.947932 149.674489 29.161474 C 151.809906 30.380224 153.450531 32.125016 154.596365 34.39585 C 155.742198 36.671891 156.315115 39.338558 156.315115 42.390642 Z M 189.747409 57.000018 L 181.8047 57.000018 L 181.8047 39.994808 C 181.8047 37.89585 181.434908 36.317725 180.684908 35.27085 C 179.940116 34.218766 178.752616 33.692725 177.117199 33.692725 C 174.898449 33.692725 173.289074 34.437516 172.299491 35.921891 C 171.309907 37.406266 170.815116 39.8646 170.815116 43.3021 L 170.815116 57.000018 L 162.872407 57.000018 L 162.872407 27.885432 L 168.940116 27.885432 L 170.007824 31.609391 L 170.450532 31.609391 C 171.335949 30.203141 172.559907 29.140641 174.111991 28.421891 C 175.664074 27.703141 177.429699 27.338557 179.408866 27.338557 C 182.794283 27.338557 185.3672 28.255224 187.1172 30.088558 C 188.872409 31.916683 189.747409 34.562516 189.747409 38.015641 Z M 209.981785 51.296892 C 212.117202 51.296892 213.643243 50.687517 214.565119 49.463559 C 215.481785 48.2396 215.945327 46.255225 215.945327 43.510434 L 215.945327 42.546892 C 215.945327 39.442725 215.460952 37.203141 214.49741 35.843766 C 213.533868 34.479183 211.986993 33.796891 209.851577 33.796891 C 206.117201 33.796891 204.252618 36.734391 204.252618 42.598975 C 204.252618 45.515642 204.71616 47.692725 205.643243 49.135434 C 206.575535 50.578142 208.018243 51.296892 209.981785 51.296892 Z M 223.367202 57.052101 C 223.367202 61.234393 222.143244 64.406268 219.705744 66.567727 C 217.268244 68.729185 213.632827 69.812519 208.80991 69.812519 C 204.554701 69.812519 200.924493 69.239602 197.924492 68.093768 L 197.924492 61.739601 C 201.445326 63.234393 205.231785 63.979185 209.27866 63.979185 C 213.356785 63.979185 215.398452 61.77606 215.398452 57.364601 L 215.398452 56.791684 L 215.632827 53.223976 L 215.398452 53.223976 C 213.539077 56.088559 210.789077 57.520851 207.143243 57.520851 C 203.653659 57.520851 200.950534 56.177101 199.028659 53.484392 C 197.111992 50.791684 196.153659 47.130225 196.153659 42.494808 C 196.153659 37.723975 197.148451 34.000016 199.132826 31.338558 C 201.122409 28.671891 203.861993 27.338557 207.351576 27.338557 C 210.924493 27.338557 213.736993 28.765641 215.789077 31.609391 L 215.99741 31.609391 L 216.648452 27.885432 L 223.367202 27.885432 Z M 223.367202 57.052101 " stroke="#ffffff" stroke-width="1.466666" stroke-opacity="1" stroke-miterlimit="4"/><path stroke-linecap="butt" transform="matrix(0.75, 0, 0, 0.75, 66.146484, 159.74999)" fill="none" stroke-linejoin="miter" d="M 263.190122 37.598975 C 263.190122 43.885434 261.47658 48.687517 258.049496 52.015642 C 254.617205 55.338559 249.700538 57.000018 243.294287 57.000018 L 232.695328 57.000018 L 232.695328 18.927099 L 244.414079 18.927099 C 250.335954 18.927099 254.94533 20.557307 258.242205 23.812516 C 261.53908 27.067724 263.190122 31.661474 263.190122 37.598975 Z M 258.138038 37.755225 C 258.138038 32.911474 256.94533 29.244808 254.559913 26.755224 C 252.169288 24.265641 248.565121 23.01564 243.736995 23.01564 L 237.486995 23.01564 L 237.486995 52.885434 L 242.669287 52.885434 C 252.981788 52.885434 258.138038 47.843767 258.138038 37.755225 Z M 283.13804 57.520851 C 278.846373 57.520851 275.481789 56.223976 273.044289 53.630226 C 270.606789 51.031267 269.388039 47.45835 269.388039 42.911475 C 269.388039 38.328142 270.523456 34.6771 272.799497 31.963558 C 275.070331 29.244808 278.143248 27.885432 282.018248 27.885432 C 285.611998 27.885432 288.476582 29.046891 290.60679 31.364599 C 292.742207 33.682308 293.809915 36.817725 293.809915 40.776058 L 293.809915 43.6146 L 274.231789 43.6146 C 274.315122 46.859392 275.143248 49.328142 276.705748 51.010434 C 278.268248 52.692726 280.48179 53.536476 283.346373 53.536476 C 284.872415 53.536476 286.320332 53.401059 287.695332 53.135434 C 289.065123 52.864601 290.66929 52.338559 292.507832 51.557309 L 292.507832 55.671893 C 290.929707 56.348976 289.445332 56.828143 288.059915 57.104184 C 286.66929 57.380226 285.028665 57.520851 283.13804 57.520851 Z M 281.966165 31.713558 C 279.726581 31.713558 277.955748 32.437516 276.653664 33.875016 C 275.351581 35.317725 274.575539 37.322933 274.335956 39.890642 L 288.88804 39.890642 C 288.85679 37.218766 288.242207 35.187516 287.04429 33.796891 C 285.846373 32.411474 284.153665 31.713558 281.966165 31.713558 Z M 307.351583 57.000018 L 296.518249 28.406266 L 301.544291 28.406266 L 307.612 45.255225 C 308.809916 48.640642 309.575541 51.166684 309.903666 52.833351 L 310.112 52.833351 C 310.164083 52.609392 310.231791 52.354184 310.309917 52.067726 C 310.388042 51.781267 310.476583 51.468767 310.58075 51.130226 C 310.684917 50.791684 311.325542 48.833351 312.507833 45.255225 L 318.601584 28.406266 L 323.601584 28.406266 L 312.742208 57.000018 Z M 307.351583 57.000018 " stroke="#ffffff" stroke-width="1.466666" stroke-opacity="1" stroke-miterlimit="4"/><g fill="#ffffff" fill-opacity="1"><g transform="translate(66.146484, 202.499987)"><g><path d="M 15.28125 -22.25 C 17.851562 -22.25 19.867188 -21.242188 21.328125 -19.234375 C 22.785156 -17.222656 23.515625 -14.460938 23.515625 -10.953125 C 23.515625 -7.347656 22.757812 -4.554688 21.25 -2.578125 C 19.75 -0.597656 17.707031 0.390625 15.125 0.390625 C 12.550781 0.390625 10.535156 -0.539062 9.078125 -2.40625 L 8.671875 -2.40625 L 7.671875 0 L 3.125 0 L 3.125 -30.390625 L 9.078125 -30.390625 L 9.078125 -23.328125 C 9.078125 -22.421875 9 -20.976562 8.84375 -19 L 9.078125 -19 C 10.472656 -21.164062 12.539062 -22.25 15.28125 -22.25 Z M 13.359375 -17.484375 C 11.890625 -17.484375 10.816406 -17.03125 10.140625 -16.125 C 9.460938 -15.21875 9.109375 -13.722656 9.078125 -11.640625 L 9.078125 -11 C 9.078125 -8.65625 9.425781 -6.972656 10.125 -5.953125 C 10.820312 -4.941406 11.925781 -4.4375 13.4375 -4.4375 C 14.664062 -4.4375 15.640625 -5 16.359375 -6.125 C 17.078125 -7.25 17.4375 -8.882812 17.4375 -11.03125 C 17.4375 -13.1875 17.070312 -14.800781 16.34375 -15.875 C 15.613281 -16.945312 14.617188 -17.484375 13.359375 -17.484375 Z M 13.359375 -17.484375 "/></g></g></g><g fill="#ffffff" fill-opacity="1"><g transform="translate(91.45651, 202.499987)"><g><path d="M 12.328125 -4.359375 C 13.367188 -4.359375 14.617188 -4.585938 16.078125 -5.046875 L 16.078125 -0.609375 C 14.585938 0.0546875 12.765625 0.390625 10.609375 0.390625 C 8.222656 0.390625 6.484375 -0.207031 5.390625 -1.40625 C 4.304688 -2.613281 3.765625 -4.425781 3.765625 -6.84375 L 3.765625 -17.359375 L 0.921875 -17.359375 L 0.921875 -19.890625 L 4.203125 -21.875 L 5.921875 -26.484375 L 9.734375 -26.484375 L 9.734375 -21.84375 L 15.84375 -21.84375 L 15.84375 -17.359375 L 9.734375 -17.359375 L 9.734375 -6.84375 C 9.734375 -5.988281 9.96875 -5.359375 10.4375 -4.953125 C 10.914062 -4.554688 11.546875 -4.359375 12.328125 -4.359375 Z M 12.328125 -4.359375 "/></g></g></g><g fill="#ffffff" fill-opacity="1"><g transform="translate(108.8181, 202.499987)"><g><path d="M 15.125 0.390625 C 12.550781 0.390625 10.535156 -0.539062 9.078125 -2.40625 L 8.765625 -2.40625 C 8.972656 -0.582031 9.078125 0.472656 9.078125 0.765625 L 9.078125 9.609375 L 3.125 9.609375 L 3.125 -21.84375 L 7.96875 -21.84375 L 8.8125 -19 L 9.078125 -19 C 10.472656 -21.164062 12.539062 -22.25 15.28125 -22.25 C 17.851562 -22.25 19.867188 -21.25 21.328125 -19.25 C 22.785156 -17.257812 23.515625 -14.492188 23.515625 -10.953125 C 23.515625 -8.628906 23.171875 -6.609375 22.484375 -4.890625 C 21.804688 -3.171875 20.832031 -1.859375 19.5625 -0.953125 C 18.300781 -0.0546875 16.820312 0.390625 15.125 0.390625 Z M 13.359375 -17.484375 C 11.890625 -17.484375 10.816406 -17.03125 10.140625 -16.125 C 9.460938 -15.21875 9.109375 -13.722656 9.078125 -11.640625 L 9.078125 -11 C 9.078125 -8.65625 9.425781 -6.972656 10.125 -5.953125 C 10.820312 -4.941406 11.925781 -4.4375 13.4375 -4.4375 C 16.101562 -4.4375 17.4375 -6.632812 17.4375 -11.03125 C 17.4375 -13.1875 17.109375 -14.800781 16.453125 -15.875 C 15.796875 -16.945312 14.765625 -17.484375 13.359375 -17.484375 Z M 13.359375 -17.484375 "/></g></g></g><g fill="#ffffff" fill-opacity="1"><g transform="translate(134.128127, 202.499987)"><g><path d="M 23.28125 0 L 17.328125 0 L 17.328125 -12.75 C 17.328125 -15.90625 16.15625 -17.484375 13.8125 -17.484375 C 12.144531 -17.484375 10.9375 -16.914062 10.1875 -15.78125 C 9.445312 -14.644531 9.078125 -12.8125 9.078125 -10.28125 L 9.078125 0 L 3.125 0 L 3.125 -30.390625 L 9.078125 -30.390625 L 9.078125 -24.203125 C 9.078125 -23.722656 9.035156 -22.585938 8.953125 -20.796875 L 8.8125 -19.046875 L 9.125 -19.046875 C 10.445312 -21.179688 12.554688 -22.25 15.453125 -22.25 C 18.015625 -22.25 19.957031 -21.554688 21.28125 -20.171875 C 22.613281 -18.796875 23.28125 -16.816406 23.28125 -14.234375 Z M 23.28125 0 "/></g></g></g><g fill="#ffffff" fill-opacity="1"><g transform="translate(160.41462, 202.499987)"><g><path d="M 7.875 -10.953125 C 7.875 -8.796875 8.226562 -7.160156 8.9375 -6.046875 C 9.644531 -4.941406 10.800781 -4.390625 12.40625 -4.390625 C 13.988281 -4.390625 15.128906 -4.941406 15.828125 -6.046875 C 16.523438 -7.148438 16.875 -8.785156 16.875 -10.953125 C 16.875 -13.117188 16.519531 -14.738281 15.8125 -15.8125 C 15.113281 -16.894531 13.960938 -17.4375 12.359375 -17.4375 C 10.773438 -17.4375 9.628906 -16.898438 8.921875 -15.828125 C 8.222656 -14.753906 7.875 -13.128906 7.875 -10.953125 Z M 22.96875 -10.953125 C 22.96875 -7.398438 22.03125 -4.617188 20.15625 -2.609375 C 18.28125 -0.609375 15.671875 0.390625 12.328125 0.390625 C 10.234375 0.390625 8.382812 -0.0664062 6.78125 -0.984375 C 5.175781 -1.898438 3.941406 -3.21875 3.078125 -4.9375 C 2.222656 -6.65625 1.796875 -8.660156 1.796875 -10.953125 C 1.796875 -14.523438 2.726562 -17.300781 4.59375 -19.28125 C 6.457031 -21.257812 9.070312 -22.25 12.4375 -22.25 C 14.539062 -22.25 16.390625 -21.789062 17.984375 -20.875 C 19.585938 -19.96875 20.816406 -18.660156 21.671875 -16.953125 C 22.535156 -15.242188 22.96875 -13.242188 22.96875 -10.953125 Z M 22.96875 -10.953125 "/></g></g></g><g fill="#ffffff" fill-opacity="1"><g transform="translate(185.177825, 202.499987)"><g><path d="M 23.28125 0 L 17.328125 0 L 17.328125 -12.75 C 17.328125 -14.332031 17.046875 -15.515625 16.484375 -16.296875 C 15.921875 -17.085938 15.03125 -17.484375 13.8125 -17.484375 C 12.144531 -17.484375 10.9375 -16.925781 10.1875 -15.8125 C 9.445312 -14.695312 9.078125 -12.851562 9.078125 -10.28125 L 9.078125 0 L 3.125 0 L 3.125 -21.84375 L 7.671875 -21.84375 L 8.484375 -19.046875 L 8.8125 -19.046875 C 9.476562 -20.097656 10.390625 -20.894531 11.546875 -21.4375 C 12.710938 -21.976562 14.039062 -22.25 15.53125 -22.25 C 18.070312 -22.25 20 -21.5625 21.3125 -20.1875 C 22.625 -18.8125 23.28125 -16.828125 23.28125 -14.234375 Z M 23.28125 0 "/></g></g></g><g fill="#ffffff" fill-opacity="1"><g transform="translate(211.464318, 202.499987)"><g><path d="M 12.171875 -4.28125 C 13.773438 -4.28125 14.921875 -4.738281 15.609375 -5.65625 C 16.296875 -6.570312 16.640625 -8.0625 16.640625 -10.125 L 16.640625 -10.84375 C 16.640625 -13.175781 16.273438 -14.851562 15.546875 -15.875 C 14.828125 -16.894531 13.671875 -17.40625 12.078125 -17.40625 C 9.273438 -17.40625 7.875 -15.203125 7.875 -10.796875 C 7.875 -8.609375 8.222656 -6.972656 8.921875 -5.890625 C 9.617188 -4.816406 10.703125 -4.28125 12.171875 -4.28125 Z M 22.203125 0.046875 C 22.203125 3.179688 21.285156 5.554688 19.453125 7.171875 C 17.628906 8.796875 14.910156 9.609375 11.296875 9.609375 C 8.097656 9.609375 5.375 9.179688 3.125 8.328125 L 3.125 3.5625 C 5.769531 4.675781 8.609375 5.234375 11.640625 5.234375 C 14.703125 5.234375 16.234375 3.582031 16.234375 0.28125 L 16.234375 -0.15625 L 16.40625 -2.828125 L 16.234375 -2.828125 C 14.835938 -0.679688 12.773438 0.390625 10.046875 0.390625 C 7.421875 0.390625 5.390625 -0.617188 3.953125 -2.640625 C 2.515625 -4.660156 1.796875 -7.40625 1.796875 -10.875 C 1.796875 -14.457031 2.539062 -17.25 4.03125 -19.25 C 5.519531 -21.25 7.578125 -22.25 10.203125 -22.25 C 12.878906 -22.25 14.988281 -21.179688 16.53125 -19.046875 L 16.6875 -19.046875 L 17.171875 -21.84375 L 22.203125 -21.84375 Z M 22.203125 0.046875 "/></g></g></g><g fill="#ffffff" fill-opacity="1"><g transform="translate(236.783195, 202.499987)"><g><path d="M 26.765625 -14.546875 C 26.765625 -9.835938 25.476562 -6.234375 22.90625 -3.734375 C 20.332031 -1.242188 16.644531 0 11.84375 0 L 3.890625 0 L 3.890625 -28.5625 L 12.671875 -28.5625 C 17.117188 -28.5625 20.578125 -27.335938 23.046875 -24.890625 C 25.523438 -22.453125 26.765625 -19.003906 26.765625 -14.546875 Z M 22.96875 -14.4375 C 22.96875 -18.070312 22.070312 -20.820312 20.28125 -22.6875 C 18.488281 -24.550781 15.785156 -25.484375 12.171875 -25.484375 L 7.484375 -25.484375 L 7.484375 -3.09375 L 11.375 -3.09375 C 19.101562 -3.09375 22.96875 -6.875 22.96875 -14.4375 Z M 22.96875 -14.4375 "/></g></g></g><g fill="#ffffff" fill-opacity="1"><g transform="translate(265.979566, 202.499987)"><g><path d="M 12.515625 0.390625 C 9.304688 0.390625 6.785156 -0.582031 4.953125 -2.53125 C 3.117188 -4.476562 2.203125 -7.15625 2.203125 -10.5625 C 2.203125 -14 3.054688 -16.738281 4.765625 -18.78125 C 6.472656 -20.820312 8.78125 -21.84375 11.6875 -21.84375 C 14.375 -21.84375 16.519531 -20.972656 18.125 -19.234375 C 19.726562 -17.492188 20.53125 -15.140625 20.53125 -12.171875 L 20.53125 -10.046875 L 5.84375 -10.046875 C 5.90625 -7.609375 6.519531 -5.753906 7.6875 -4.484375 C 8.863281 -3.222656 10.523438 -2.59375 12.671875 -2.59375 C 13.816406 -2.59375 14.90625 -2.691406 15.9375 -2.890625 C 16.96875 -3.097656 18.171875 -3.492188 19.546875 -4.078125 L 19.546875 -1 C 18.367188 -0.488281 17.257812 -0.128906 16.21875 0.078125 C 15.175781 0.285156 13.941406 0.390625 12.515625 0.390625 Z M 11.640625 -18.96875 C 9.960938 -18.96875 8.632812 -18.425781 7.65625 -17.34375 C 6.675781 -16.257812 6.097656 -14.753906 5.921875 -12.828125 L 16.84375 -12.828125 C 16.8125 -14.835938 16.347656 -16.363281 15.453125 -17.40625 C 14.554688 -18.445312 13.285156 -18.96875 11.640625 -18.96875 Z M 11.640625 -18.96875 "/></g></g></g><g fill="#ffffff" fill-opacity="1"><g transform="translate(288.535961, 202.499987)"><g><path d="M 8.125 0 L 0 -21.453125 L 3.765625 -21.453125 L 8.328125 -8.8125 C 9.222656 -6.269531 9.796875 -4.375 10.046875 -3.125 L 10.203125 -3.125 C 10.234375 -3.289062 10.28125 -3.484375 10.34375 -3.703125 C 10.40625 -3.921875 10.472656 -4.15625 10.546875 -4.40625 C 10.628906 -4.65625 11.113281 -6.125 12 -8.8125 L 16.5625 -21.453125 L 20.3125 -21.453125 L 12.171875 0 Z M 8.125 0 "/></g></g></g></svg>